<svg xmlns="http://www.w3.org/2000/svg" viewBox="0 0 100 100" width="100" height="100">
  <defs>
    <linearGradient id="logoGradient" x1="0%" y1="0%" x2="100%" y2="100%">
      <stop offset="0%" style="stop-color:#3b82f6;stop-opacity:1" />
      <stop offset="50%" style="stop-color:#8b5cf6;stop-opacity:1" />
      <stop offset="100%" style="stop-color:#ec4899;stop-opacity:1" />
    </linearGradient>
    <filter id="glow">
      <feGaussianBlur stdDeviation="2" result="coloredBlur"/>
      <feMerge> 
        <feMergeNode in="coloredBlur"/>
        <feMergeNode in="SourceGraphic"/>
      </feMerge>
    </filter>
  </defs>
  
  <!-- Background Circle -->
  <circle cx="50" cy="50" r="45" fill="url(#logoGradient)" opacity="0.1"/>
  
  <!-- Y Letter -->
  <path d="M25 20 L40 40 L40 80 L50 80 L50 40 L65 20 L55 20 L45 35 L35 20 Z" 
        fill="url(#logoGradient)" 
        filter="url(#glow)"/>
  
  <!-- J Letter -->
  <path d="M70 20 L80 20 L80 60 Q80 70 70 70 L65 70 Q60 70 60 65 L60 60 L70 60 L70 65 L65 65 Q65 65 65 65 L65 60 L70 60 Z" 
        fill="url(#logoGradient)" 
        filter="url(#glow)"/>
  
  <!-- Decorative Elements -->
  <circle cx="30" cy="30" r="2" fill="#3b82f6" opacity="0.6"/>
  <circle cx="70" cy="30" r="2" fill="#8b5cf6" opacity="0.6"/>
  <circle cx="50" cy="70" r="2" fill="#ec4899" opacity="0.6"/>
</svg> 